<svg width="1000" height="1000" viewBox="0 0 1000 1000" fill="none" xmlns="http://www.w3.org/2000/svg">
<circle cx="500" cy="500" r="500" fill="#404EED"/>
<path d="M500 825C679.493 825 825 679.493 825 500C825 320.507 679.493 175 500 175C320.507 175 175 320.507 175 500C175 679.493 320.507 825 500 825Z" stroke="white" stroke-width="47" stroke-linecap="round" stroke-linejoin="round"/>
<path d="M601.111 391.667C594.57 380.319 585.065 370.964 573.616 364.603C562.166 358.242 549.202 355.115 536.111 355.556H463.889C444.734 355.556 426.364 363.165 412.82 376.709C399.276 390.253 391.667 408.623 391.667 427.778C391.667 446.932 399.276 465.302 412.82 478.847C426.364 492.391 444.734 500 463.889 500H536.111C555.266 500 573.636 507.609 587.18 521.153C600.724 534.698 608.333 553.068 608.333 572.222C608.333 591.377 600.724 609.747 587.18 623.291C573.636 636.835 555.266 644.444 536.111 644.444H463.889C450.798 644.885 437.834 641.758 426.385 635.397C414.935 629.036 405.431 619.681 398.889 608.333" stroke="white" stroke-width="47" stroke-linecap="round" stroke-linejoin="round"/>
<path d="M500 644.444V716.667M500 283.333V355.556V283.333Z" stroke="white" stroke-width="47" stroke-linecap="round" stroke-linejoin="round"/>
</svg>
